<?xml version="1.0" encoding="utf-8"?>
<!-- Generator: Adobe Illustrator 24.0.2, SVG Export Plug-In . SVG Version: 6.00 Build 0)  -->
<svg version="1.1" id="Layer_1" xmlns="http://www.w3.org/2000/svg" xmlns:xlink="http://www.w3.org/1999/xlink" x="0px" y="0px"
	 viewBox="0 0 419.4 324.8" style="enable-background:new 0 0 419.4 324.8;" xml:space="preserve">
<style type="text/css">
	.st0{fill:#5C345B;}
</style>
<path d="M75.2,216.9L68.8,249c-0.6,3.1,1.7,6,4.9,6h17.6c2.4,0,4.4-1.7,4.9-4l6.9-34.1H75.2z M197.3,117.2
	c-9.9-7.9-23.9-11.9-42-11.9h-53.6c-2.4,0-4.4,1.7-4.9,4l-5.2,26.1l-0.1,0.5h27.8l0.1-0.5l0.5-2.6c0.5-2.3,2.5-4,4.9-4h27.5
	c10.3,0,18.1,2,23.6,6.1c0.2,0.2,0.4,0.3,0.6,0.5c0.2,0.2,0.4,0.3,0.6,0.5H192c1.4,0,2.5,1.1,2.5,2.5s-1.1,2.5-2.5,2.5h-10.7
	c0.1,0.2,0.2,0.3,0.3,0.5c1.7,3.2,2.6,7.1,2.6,11.6c0,11.4-3.7,20.1-11,26.2c-7.3,6.1-17.8,9.1-31.3,9.1H115c-3.2,0-5.5-2.9-4.9-6
	l8.1-40.9l0.1-0.5H90.4l-0.1,0.5l-14.1,70.5l32-0.1h32.5c14.5,0,27.2-2.5,38-7.4c10.8-4.9,19-12,24.8-21.2
	c5.8-9.2,8.7-20.1,8.7-32.8C212.2,136.2,207.2,125.1,197.3,117.2z"/>
<path d="M335.7,149.6c-7.5-6.7-17.7-10-30.5-10c-15.3,0-27.8,4.2-37.6,12.6l9.9-49.8c0.6-3.1-1.7-6-4.9-6H256c-2.4,0-4.4,1.7-4.9,4
	l-25.6,128.3l-1.2,6l-2.9,14.3c-0.6,3.1,1.8,6,4.9,6h16.5c2.4,0,4.4-1.7,4.9-4l3.3-16.3l0.1-0.5H235c-1.4,0-2.5-1.1-2.5-2.5
	s1.1-2.5,2.5-2.5h17.3l0.1-0.5l6.6-32.9c2.3-11,6.6-19.2,13.1-24.7c6.4-5.5,14.5-8.2,24.4-8.2c15.3,0,22.9,6.9,22.9,20.8
	c0,3-0.3,5.9-0.9,8.8l-3.6,18.4l-1.2,6l-2.4,12l-0.1,0.5h26.8l0.1-0.5l2.4-12l0-0.2h-16.7c-1.4,0-2.5-1.1-2.5-2.5s1.1-2.5,2.5-2.5
	h17.7l0.2-0.8l3.8-19c1-5.6,1.5-10,1.5-13.5C346.9,165.9,343.1,156.3,335.7,149.6z M310.2,234.2l-0.1,0.5l-2.8,14.4
	c-0.6,3.1,1.8,6,4.9,6h16.5c2.4,0,4.4-1.7,4.9-4l3.3-16.3l0.1-0.5H310.2z"/>
<g>
	<path class="st0" d="M52.8,258c-0.2,0-0.4,0-0.6-0.1c-1.6-0.3-2.7-1.9-2.4-3.5L83,85.2c0.3-1.6,1.9-2.7,3.5-2.4
		c1.6,0.3,2.7,1.9,2.4,3.5L55.7,255.6C55.4,257,54.2,258,52.8,258z"/>
</g>
<g>
	<path class="st0" d="M348.6,258c-0.2,0-0.4,0-0.6-0.1c-1.6-0.3-2.7-1.9-2.4-3.5l23.6-120.4c0.3-1.6,1.9-2.7,3.5-2.4
		c1.6,0.3,2.7,1.9,2.4,3.5l-23.6,120.4C351.2,257,350,258,348.6,258z"/>
</g>
<g>
	<path class="st0" d="M321.3,214c0,1.4,1.1,2.5,2.5,2.5h16.7l0,0.2h-48.7c-1.7,0-3-1.4-3-3c0-1.7,1.3-3,3-3h49.8l-0.2,0.8h-17.7
		C322.4,211.5,321.3,212.6,321.3,214z"/>
</g>
<g>
	<path class="st0" d="M232.5,231.7c0,1.4,1.1,2.5,2.5,2.5h16.2l-0.1,0.5h-43.7c-1.7,0-3-1.3-3-3c0-1.7,1.3-3,3-3h44.9l-0.1,0.5H235
		C233.6,229.2,232.5,230.3,232.5,231.7z"/>
</g>
<g>
	<polygon class="st0" points="310.2,234.2 336.9,234.2 336.8,234.7 310.1,234.7 	"/>
	<polygon class="st0" points="338,228.7 337.9,229.2 311.2,229.2 311.3,228.7 	"/>
</g>
<g>
	<polygon class="st0" points="90.4,140.9 118.2,140.9 118.1,141.4 90.3,141.4 	"/>
	<polygon class="st0" points="91.5,135.4 119.3,135.4 119.2,135.9 91.4,135.9 	"/>
	<path class="st0" d="M197.5,138.4c0,1.7-1.3,3-3,3h-12.9c-0.1-0.2-0.2-0.3-0.3-0.5H192c1.4,0,2.5-1.1,2.5-2.5s-1.1-2.5-2.5-2.5
		h-14.8c-0.2-0.2-0.4-0.3-0.6-0.5h18C196.2,135.4,197.5,136.8,197.5,138.4z"/>
</g>
</svg>
